<svg width="403" height="51" viewBox="0 0 403 51" fill="none" xmlns="http://www.w3.org/2000/svg">
<path d="M11.4375 6.375H42.6875L31.8125 47L18.4688 50.125L23.5 31.375H17.25L13.0625 47H0.5625L11.4375 6.375ZM21.4375 15.75L19.75 22H26L27.6875 15.75H21.4375ZM55.8125 15.75L54.125 22H60.375L62.0625 15.75H55.8125ZM34.9375 47L45.8125 6.375H77.0625L72.4688 23.5625L59.125 26.6875H71.625L66.1875 47H34.9375ZM49.9375 37.625H56.1875L57.875 31.375H51.625L49.9375 37.625ZM84.3125 37.625H90.5625L96.4375 15.75H90.1875L84.3125 37.625ZM69.3125 47L80.1875 6.375H111.438L100.562 47H69.3125ZM103.688 47L114.562 6.375H127.062L118.688 37.625H124.938L133.312 6.375H145.812L134.938 47H103.688ZM168.312 15.75L159.938 47L146.594 50.125L155.812 15.75H146.438L148.938 6.375H180.188L177.688 15.75H168.312ZM199.188 6.375H230.438L219.562 47L206.219 50.125L211.25 31.375H205L200.812 47H188.312L199.188 6.375ZM209.188 15.75L207.5 22H213.75L215.438 15.75H209.188ZM243.562 15.75L241.875 22H248.125L249.812 15.75H243.562ZM245.625 31.375H239.375L235.188 47H222.688L233.562 6.375H264.812L260.219 23.5625L246.875 26.6875H259.375L253.938 47L240.594 50.125L245.625 31.375ZM284.188 15.75H277.938L272.062 37.625H278.312L279.156 34.5L292.5 31.375L288.312 47H257.062L267.938 6.375H299.188L295.844 18.875L282.5 22L284.188 15.75ZM302.312 6.375H333.562L322.688 47L309.344 50.125L314.375 31.375H308.125L303.938 47H291.438L302.312 6.375ZM312.312 15.75L310.625 22H316.875L318.562 15.75H312.312ZM352.938 15.75H346.688L340.812 37.625H347.062L352.938 15.75ZM355.438 6.375L356.281 3.25L369.625 0.125L357.062 47H325.812L336.688 6.375H355.438ZM382.5 22H398.125L395.625 31.375H380L382.5 22ZM375.188 37.625H393.938L391.438 47H360.188L371.062 6.375H402.312L399.812 15.75H381.062L375.188 37.625Z" fill="white"/>
</svg>
