<svg width="1200" height="720" viewBox="0 0 1200 720" fill="none" xmlns="http://www.w3.org/2000/svg">
<mask id="path-1-outside-1_541_7889" maskUnits="userSpaceOnUse" x="0" y="0" width="1200" height="720" fill="black">
<rect fill="white" width="1200" height="720"/>
<path fill-rule="evenodd" clip-rule="evenodd" d="M536 712H1028L1044 696H1112L1160 648V251L1192 219V40L1160 8H844L812 40H351L319 8H64L8 64V584L72 648H472L536 712Z"/>
</mask>
<path d="M1028 712V720H1031.31L1033.66 717.657L1028 712ZM536 712L530.343 717.657L532.686 720H536V712ZM1044 696V688H1040.69L1038.34 690.343L1044 696ZM1112 696V704H1115.31L1117.66 701.657L1112 696ZM1160 648L1165.66 653.657L1168 651.314V648H1160ZM1160 251L1154.34 245.343L1152 247.686V251H1160ZM1192 219L1197.66 224.657L1200 222.314V219H1192ZM1192 40H1200V36.6863L1197.66 34.3431L1192 40ZM1160 8L1165.66 2.34315L1163.31 0H1160V8ZM844 8V0H840.686L838.343 2.34315L844 8ZM812 40V48H815.314L817.657 45.6569L812 40ZM351 40L345.343 45.6569L347.686 48H351V40ZM319 8L324.657 2.34315L322.314 0H319V8ZM64 8V0H60.6863L58.3431 2.34315L64 8ZM8 64L2.34315 58.3431L0 60.6863V64H8ZM8 584H0V587.314L2.34315 589.657L8 584ZM72 648L66.3431 653.657L68.6863 656H72V648ZM472 648L477.657 642.343L475.314 640H472V648ZM1028 704H536V720H1028V704ZM1038.34 690.343L1022.34 706.343L1033.66 717.657L1049.66 701.657L1038.34 690.343ZM1112 688H1044V704H1112V688ZM1154.34 642.343L1106.34 690.343L1117.66 701.657L1165.66 653.657L1154.34 642.343ZM1152 251V648H1168V251H1152ZM1186.34 213.343L1154.34 245.343L1165.66 256.657L1197.66 224.657L1186.34 213.343ZM1184 40V219H1200V40H1184ZM1154.34 13.6569L1186.34 45.6569L1197.66 34.3431L1165.66 2.34315L1154.34 13.6569ZM844 16H1160V0H844V16ZM817.657 45.6569L849.657 13.6569L838.343 2.34315L806.343 34.3431L817.657 45.6569ZM351 48H812V32H351V48ZM356.657 34.3431L324.657 2.34315L313.343 13.6569L345.343 45.6569L356.657 34.3431ZM64 16H319V0H64V16ZM13.6569 69.6569L69.6569 13.6569L58.3431 2.34315L2.34315 58.3431L13.6569 69.6569ZM16 584V64H0V584H16ZM77.6569 642.343L13.6569 578.343L2.34315 589.657L66.3431 653.657L77.6569 642.343ZM472 640H72V656H472V640ZM541.657 706.343L477.657 642.343L466.343 653.657L530.343 717.657L541.657 706.343Z" fill="#B985FF" mask="url(#path-1-outside-1_541_7889)"/>
<mask id="path-3-inside-2_541_7889" fill="white">
<path d="M1200 258V496H1176V258H1200Z"/>
</mask>
<path d="M1180 496V258H1172V496H1180Z" fill="#B985FF" mask="url(#path-3-inside-2_541_7889)"/>
<path d="M1200 233V238L1180 258H1176V257L1200 233Z" fill="#B985FF"/>
<mask id="path-6-inside-3_541_7889" fill="white">
<path d="M462 693H224V669H462V693Z"/>
</mask>
<path d="M224 673H462V665H224V673Z" fill="#B985FF" mask="url(#path-6-inside-3_541_7889)"/>
<path d="M487 693H482L462 673V669H463L487 693Z" fill="#B985FF"/>
<path d="M762 0H832L807 26H737L762 0Z" fill="#B985FF"/>
<path d="M732.5 0H755L730 26H707.5L732.5 0Z" fill="#B985FF"/>
<path d="M702 0H724.5L699.5 26H677L702 0Z" fill="#B985FF"/>
<path d="M671 0H693.5L668.5 26H646L671 0Z" fill="#B985FF"/>
<path d="M640 0H662.5L637.5 26H615L640 0Z" fill="#B985FF"/>
<path d="M620.5 0H631.5L606.5 26H595.5L620.5 0Z" fill="#B985FF"/>
<path d="M603 0H614L589 26H578L603 0Z" fill="#B985FF"/>
</svg>
