<svg width="714" height="835" viewBox="0 0 714 835" fill="none" xmlns="http://www.w3.org/2000/svg">
<mask id="path-1-outside-1_378_3941" maskUnits="userSpaceOnUse" x="0" y="0" width="714" height="835" fill="black">
<rect fill="white" width="714" height="835"/>
<path fill-rule="evenodd" clip-rule="evenodd" d="M2.00011 47.3872L2 47.3867V249.271L28.3909 275.662H30V277.271L30.3953 277.666H30V509.452H30.1856L30 509.637V510.823H28.8142L16 523.637V601.641H16.34L16 601.981V604.472H13.509L2 615.981V775.215L30.2387 803.453H292.167V805.046L320.121 833L684.65 833L711.889 805.761L711.889 508.863L684.379 481.353H683V165.485H682.924L683 165.409V161.353H687.056L711.889 136.52V39.1259L682.924 2H40.9999L41 2.00003L2.00011 47.3872Z"/>
</mask>
<path fill-rule="evenodd" clip-rule="evenodd" d="M2.00011 47.3872L2 47.3867V249.271L28.3909 275.662H30V277.271L30.3953 277.666H30V509.452H30.1856L30 509.637V510.823H28.8142L16 523.637V601.641H16.34L16 601.981V604.472H13.509L2 615.981V775.215L30.2387 803.453H292.167V805.046L320.121 833L684.65 833L711.889 805.761L711.889 508.863L684.379 481.353H683V165.485H682.924L683 165.409V161.353H687.056L711.889 136.52V39.1259L682.924 2H40.9999L41 2.00003L2.00011 47.3872Z" fill="#27548A" fill-opacity="0.1"/>
<path d="M2 47.3867L3.96323 47.0049L0 47.3867H2ZM2.00011 47.3872L0.0368761 47.769L0.825224 51.8233L3.51702 48.6907L2.00011 47.3872ZM2 249.271H0V250.099L0.585786 250.685L2 249.271ZM28.3909 275.662L26.9767 277.076L27.5625 277.662H28.3909V275.662ZM30 275.662H32V273.662H30V275.662ZM30 277.271H28V278.099L28.5858 278.685L30 277.271ZM30.3953 277.666V279.666H35.2237L31.8095 276.252L30.3953 277.666ZM30 277.666V275.666H28V277.666H30ZM30 509.452H28V511.452H30V509.452ZM30.1856 509.452L31.5999 510.866L35.0139 507.452H30.1856V509.452ZM30 509.637L28.5858 508.223L28 508.809V509.637H30ZM30 510.823V512.823H32V510.823H30ZM28.8142 510.823V508.823H27.9857L27.4 509.409L28.8142 510.823ZM16 523.637L14.5858 522.223L14 522.809V523.637H16ZM16 601.641H14V603.641H16V601.641ZM16.34 601.641L17.7542 603.055L21.1684 599.641H16.34V601.641ZM16 601.981L14.5858 600.566L14 601.152V601.981H16ZM16 604.472V606.472H18V604.472H16ZM13.509 604.472V602.472H12.6805L12.0948 603.058L13.509 604.472ZM2 615.981L0.585787 614.567L0 615.152V615.981H2ZM2 775.215H0V776.043L0.585786 776.629L2 775.215ZM30.2387 803.453L28.8245 804.868L29.4103 805.453H30.2387V803.453ZM292.167 803.453H294.167V801.453H292.167V803.453ZM292.167 805.046H290.167V805.875L290.753 806.461L292.167 805.046ZM320.121 833L318.707 834.414L319.292 835H320.121V833ZM684.65 833V835H685.479L686.064 834.414L684.65 833ZM711.889 805.761L713.303 807.176L713.889 806.59V805.761H711.889ZM711.889 508.863H713.889V508.035L713.303 507.449L711.889 508.863ZM684.379 481.353L685.793 479.939L685.207 479.353H684.379V481.353ZM683 481.353H681V483.353H683V481.353ZM683 165.485H685V163.485H683V165.485ZM682.924 165.485L681.509 164.071L678.095 167.485H682.924V165.485ZM683 165.409L684.414 166.823L685 166.237V165.409H683ZM683 161.353V159.353H681V161.353H683ZM687.056 161.353V163.353H687.884L688.47 162.767L687.056 161.353ZM711.889 136.52L713.303 137.934L713.889 137.349V136.52H711.889ZM711.889 39.1259H713.889V38.4381L713.466 37.8957L711.889 39.1259ZM682.924 2L684.5 0.769747L683.9 0H682.924V2ZM40.9999 2V0L40.5725 3.9538L40.9999 2ZM41 2.00003L42.5169 3.30347L44.7005 0.762226L41.4274 0.0462266L41 2.00003ZM0.0367693 47.7684L0.0368761 47.769L3.96334 47.0055L3.96323 47.0049L0.0367693 47.7684ZM4 249.271V47.3867H0V249.271H4ZM29.8051 274.247L3.41421 247.856L0.585786 250.685L26.9767 277.076L29.8051 274.247ZM30 273.662H28.3909V277.662H30V273.662ZM32 277.271V275.662H28V277.271H32ZM31.8095 276.252L31.4142 275.856L28.5858 278.685L28.981 279.08L31.8095 276.252ZM30 279.666H30.3953V275.666H30V279.666ZM32 509.452V277.666H28V509.452H32ZM30.1856 507.452H30V511.452H30.1856V507.452ZM31.4142 511.052L31.5999 510.866L28.7714 508.038L28.5858 508.223L31.4142 511.052ZM32 510.823V509.637H28V510.823H32ZM28.8142 512.823H30V508.823H28.8142V512.823ZM17.4142 525.052L30.2284 512.238L27.4 509.409L14.5858 522.223L17.4142 525.052ZM18 601.641V523.637H14V601.641H18ZM16.34 599.641H16V603.641H16.34V599.641ZM17.4142 603.395L17.7542 603.055L14.9258 600.227L14.5858 600.566L17.4142 603.395ZM18 604.472V601.981H14V604.472H18ZM13.509 606.472H16V602.472H13.509V606.472ZM3.41421 617.395L14.9232 605.886L12.0948 603.058L0.585787 614.567L3.41421 617.395ZM4 775.215V615.981H0V775.215H4ZM31.653 802.039L3.41421 773.8L0.585786 776.629L28.8245 804.868L31.653 802.039ZM292.167 801.453H30.2387V805.453H292.167V801.453ZM294.167 805.046V803.453H290.167V805.046H294.167ZM290.753 806.461L318.707 834.414L321.535 831.586L293.581 803.632L290.753 806.461ZM684.65 831L320.121 831V835L684.65 835V831ZM710.475 804.347L683.236 831.586L686.064 834.414L713.303 807.176L710.475 804.347ZM709.889 508.863L709.889 805.761H713.889L713.889 508.863H709.889ZM682.965 482.767L710.475 510.277L713.303 507.449L685.793 479.939L682.965 482.767ZM683 483.353H684.379V479.353H683V483.353ZM681 165.485V481.353H685V165.485H681ZM682.924 167.485H683V163.485H682.924V167.485ZM681.586 163.995L681.509 164.071L684.338 166.9L684.414 166.823L681.586 163.995ZM681 161.353V165.409H685V161.353H681ZM687.056 159.353H683V163.353H687.056V159.353ZM710.475 135.106L685.642 159.939L688.47 162.767L713.303 137.934L710.475 135.106ZM709.889 39.1259V136.52H713.889V39.1259H709.889ZM681.347 3.23025L710.312 40.3562L713.466 37.8957L684.5 0.769747L681.347 3.23025ZM40.9999 4H682.924V0H40.9999V4ZM41.4274 0.0462266L41.4273 0.0461999L40.5725 3.9538L40.5726 3.95383L41.4274 0.0462266ZM3.51702 48.6907L42.5169 3.30347L39.4831 0.696584L0.48319 46.0838L3.51702 48.6907Z" fill="#A8A8A8" mask="url(#path-1-outside-1_378_3941)"/>
</svg>
