<svg width="489.6" height="549.6" viewBox="0 0 816 916" fill="none" xmlns="http://www.w3.org/2000/svg">
<mask id="path-1-outside-1_0_1" maskUnits="userSpaceOnUse" x="0" y="0" width="816" height="916" fill="black">
<rect fill="white" width="816" height="916"/>
<path fill-rule="evenodd" clip-rule="evenodd" d="M776 908H367L335 876H40L8 844L8 638L24 622L24 560L40 544L40 332L8 300V40L40 8H776L808 40V188L776 220V495L808 527V876L776 908Z"/>
</mask>
<path d="M367 908L361.343 913.657L363.686 916H367V908ZM776 908V916H779.314L781.657 913.657L776 908ZM335 876L340.657 870.343L338.314 868H335V876ZM40 876L34.3431 881.657L36.6863 884H40V876ZM8 844H0V847.314L2.34315 849.657L8 844ZM8 638L2.34315 632.343L2.86102e-06 634.686V638H8ZM24 622L29.6569 627.657L32 625.314V622H24ZM24 560L18.3431 554.343L16 556.686V560H24ZM40 544L45.6569 549.657L48 547.314V544H40ZM40 332H48V328.686L45.6569 326.343L40 332ZM8 300H0V303.314L2.34315 305.657L8 300ZM8 40L2.34315 34.3431L0 36.6863V40H8ZM40 8V0H36.6863L34.3431 2.34315L40 8ZM776 8L781.657 2.34315L779.314 0H776V8ZM808 40H816V36.6863L813.657 34.3431L808 40ZM808 188L813.657 193.657L816 191.314V188H808ZM776 220L770.343 214.343L768 216.686V220H776ZM776 495H768V498.314L770.343 500.657L776 495ZM808 527H816V523.686L813.657 521.343L808 527ZM808 876L813.657 881.657L816 879.314V876H808ZM367 916H776V900H367V916ZM329.343 881.657L361.343 913.657L372.657 902.343L340.657 870.343L329.343 881.657ZM40 884H335V868H40V884ZM2.34315 849.657L34.3431 881.657L45.6569 870.343L13.6569 838.343L2.34315 849.657ZM2.86102e-06 638L0 844H16L16 638H2.86102e-06ZM18.3432 616.343L2.34315 632.343L13.6569 643.657L29.6569 627.657L18.3432 616.343ZM16 560L16 622H32L32 560H16ZM34.3431 538.343L18.3431 554.343L29.6569 565.657L45.6569 549.657L34.3431 538.343ZM32 332L32 544H48L48 332H32ZM2.34315 305.657L34.3431 337.657L45.6569 326.343L13.6569 294.343L2.34315 305.657ZM0 40V300H16V40H0ZM34.3431 2.34315L2.34315 34.3431L13.6569 45.6569L45.6569 13.6569L34.3431 2.34315ZM776 0H40V16H776V0ZM813.657 34.3431L781.657 2.34315L770.343 13.6569L802.343 45.6569L813.657 34.3431ZM816 188V40H800V188H816ZM781.657 225.657L813.657 193.657L802.343 182.343L770.343 214.343L781.657 225.657ZM784 495V220H768V495H784ZM813.657 521.343L781.657 489.343L770.343 500.657L802.343 532.657L813.657 521.343ZM816 876V527H800V876H816ZM781.657 913.657L813.657 881.657L802.343 870.343L770.343 902.343L781.657 913.657Z" fill="#B985FF" mask="url(#path-1-outside-1_0_1)"/>
<path d="M816 271V201L790 226V296L816 271Z" fill="#B985FF"/>
<path d="M816 300.5V278L790 303V325.5L816 300.5Z" fill="#B985FF"/>
<path d="M816 319V308L790 333V344L816 319Z" fill="#B985FF"/>
<path d="M242 916H264.5L239.5 890H217L242 916Z" fill="#B985FF"/>
<path d="M271.5 916H294L269 890H246.5L271.5 916Z" fill="#B985FF"/>
<path d="M301 916H323.5L298.5 890H276L301 916Z" fill="#B985FF"/>
<path d="M330.5 916H353L328 890H305.5L330.5 916Z" fill="#B985FF"/>
<mask id="path-10-inside-2_0_1" fill="white">
<path d="M0 342V455H24V342H0Z"/>
</mask>
<path d="M20 455V342H28V455H20Z" fill="#B985FF" mask="url(#path-10-inside-2_0_1)"/>
<path d="M0 317V322L20 342H24V341L0 317Z" fill="#B985FF"/>
</svg>
